<?xml version="1.0" encoding="utf-8"?>
<!-- Generator: Adobe Illustrator 19.0.1, SVG Export Plug-In . SVG Version: 6.00 Build 0)  -->
<svg version="1.1" id="Layer_1" xmlns="http://www.w3.org/2000/svg" xmlns:xlink="http://www.w3.org/1999/xlink" x="0px" y="0px"
	 viewBox="0 0 175.4 65.9" style="enable-background:new 0 0 175.4 65.9;" xml:space="preserve">
<g>
	<path d="M21.3,10v21.4l2.6-0.2l0.4,0.5L24,41.2h-3.8l-0.3-6H4.6v6H0.7L0,33.5v-2h1c2.7,0,4-5.4,4.4-13.7l0.2-3.3L5.1,10H21.3z
		 M9.9,13.8l-0.2,3.9c-0.4,8.2-1.2,12.2-2.5,13.8h9.6V13.8H9.9z"/>
	<path d="M48,9.9v10.4h1.7c0.5,0,1.1-0.2,1.6-0.4c0.8-0.8,1.2-2,1.5-3.9c0.6-4.2,2.8-6.2,5.9-6.2c1,0,1.9,0.1,2.6,0.4L61,14.1
		c-1,0-2,0-2.8,0.3c-0.7,0.8-1.1,2.2-1.4,3.9c-0.4,1.9-1.1,3.2-2.1,4c2.2,4.6,4.5,8.4,7.8,12.4v0.6l-5.3,0.2
		c-2.5-3.5-4.6-7.4-6-11.3L48,24v11.2h-4.6V24.1l-2.9,0.1c-1.6,6-4.1,11.3-9,11.3c-1.1,0-2-0.2-2.7-0.5l0.7-4.1
		c0.6,0.2,1.2,0.3,1.8,0.3c0.4,0,1-0.1,1.4-0.2c2-2,3.3-4.8,4.3-8.7c-2.8-3.4-4.7-7-6.1-11.4v-0.6l5.5-0.3c0.2,1.4,0.4,2.9,0.6,4.2
		c0.9,2.2,1.9,4.2,3.5,6.2h2.9v-5.8L43,10.2L48,9.9z"/>
	<path d="M85.1,10l-0.5,4L77,13.7h-3.3v6.8h2.7l6.6-0.4l-0.4,4L73.7,24v7.6h3.4l8.4-0.4l-0.2,4.1H69.1V14.5L68.7,10H85.1z"/>
	<path d="M97.8,9.9v10.5l-0.2,7.2H98l9.8-17.6h4.5v25.2h-4.5V24.6l0.2-6.8h-0.4l-9.8,17.5l-4.5-0.2V14.6l-0.4-4.4L97.8,9.9z
		 M100.5,0.1c0.2,2,1.1,3.2,2.6,3.2c0.7,0,1.2-0.2,1.6-0.5c0.3-0.5,0.4-1.3,0.4-2.3l4-0.5c0,4.5-2.6,6.7-6.3,6.7
		c-3.4,0-5.9-2.3-6.3-5.8L100.5,0.1z"/>
	<path d="M137.7,10h5.4l6.8-0.2l-0.2,4.4l-5.6-0.4h-1.4v21.4H138V13.8h-1.4l-5.8,0.3l0.3-4.3L137.7,10z"/>
	<path d="M161,9.9v10.5l-0.2,7.2h0.4l9.8-17.6h4.5v25.2H171V24.6l0.2-6.8h-0.4L161,35.4l-4.5-0.2V14.6l-0.4-4.4L161,9.9z"/>
</g>
<g>
	<path d="M48.6,53.1v12.6h-2.3V54.9H43l-0.1,2.5c-0.1,3.5-0.4,5.6-1.3,7c-0.6,0.9-1.4,1.4-2.7,1.4c-0.6,0-1.1-0.1-1.5-0.3l0.5-1.9
		c0.3,0.1,0.6,0.1,0.9,0.1c0.5,0,1-0.2,1.2-0.7c0.5-1.2,0.7-3.6,0.8-5.7l0.1-2.1l-0.1-2.2H48.6z"/>
	<path d="M63.1,59.4c0,4.1-2.1,6.6-5.2,6.6c-3.2,0-5.2-2.3-5.2-6.6c0-4,2.1-6.6,5.2-6.6C61,52.8,63.1,55.1,63.1,59.4z M54.9,59.4
		c0,3.3,1.2,4.6,3,4.6c0.7,0,1.4-0.2,1.9-0.6c0.6-1,1-2.3,1-4c0-3.3-1.2-4.6-3-4.6c-0.7,0-1.4,0.2-1.9,0.7
		C55.2,56.4,54.9,57.7,54.9,59.4z"/>
	<path d="M70.6,53.1L75,53l-0.3,2.2l-3.6-0.2h-1.7v10.7H67V55.3l-0.2-2.2H70.6z"/>
	<path d="M80.9,53v5.2l-0.1,3.6H81l4.9-8.8h2.3v12.6h-2.2v-5.3L86,57h-0.2l-4.9,8.7l-2.2-0.1V55.4l-0.2-2.2L80.9,53z"/>
	<path d="M99.8,56.2c-0.5-0.5-1.2-1-1.9-1.4c-0.2,0-0.4-0.1-0.7-0.1c-0.6,0-1.4,0.2-1.9,0.7c-0.6,1-0.9,2.2-0.9,4
		c0,3.2,1.3,4.6,3,4.6c1.1,0,2.1-0.5,2.9-1.4l1.3,1.5c-1.1,1.2-2.6,1.8-4.3,1.8c-3.5,0-5.2-2.6-5.2-6.6c0-4.1,2.1-6.6,5.3-6.6
		c1.6,0,2.9,0.5,3.9,1.4L99.8,56.2z"/>
	<path d="M107.6,53.1h2.7l3.4-0.1l-0.1,2.2l-2.8-0.2H110v10.7h-2.3V55h-0.7l-2.9,0.2l0.2-2.2L107.6,53.1z"/>
	<path d="M119.2,53v5.2l-0.1,3.6h0.2l4.9-8.8h2.3v12.6h-2.2v-5.3l0.1-3.4h-0.2l-4.9,8.7l-2.2-0.1V55.4l-0.2-2.2L119.2,53z"/>
	<path d="M133.3,53v5.2h0.7c0.4,0,0.7,0,1.1-0.2c0.5-0.4,0.7-1,0.9-2c0.3-2.2,1.4-3.1,3.2-3.1c0.5,0,0.9,0.1,1.3,0.2l-0.2,1.9
		c-0.6,0-1.1,0-1.6,0.2c-0.3,0.4-0.5,1-0.7,2c-0.2,1-0.6,1.7-1.2,2.1c1.1,2.3,2.2,4,4,6.1v0.3l-2.7,0.1c-1.3-1.7-2.3-3.6-3.1-5.6
		l-1.7-0.1v5.6H131V55.3l-0.2-2.1L133.3,53z"/>
</g>
</svg>
